<svg width="24" height="24" viewBox="0 0 24 24" fill="none" xmlns="http://www.w3.org/2000/svg" xmlns:xlink="http://www.w3.org/1999/xlink">
<path d="M10.099,9.999C10.099,9.08 9.474,9.08 9.474,9.08L9.143,9.08L6.903,9.08L6.902,9.08L6.902,11.052L9.315,11.052C9.732,11.052 10.099,10.919 10.099,9.999Z" fill="#000000"/>
<path d="M16.057,11.052C14.693,11.052 14.503,12.413 14.503,12.413L17.405,12.413C17.405,12.413 17.423,11.052 16.057,11.052Z" fill="#000000"/>
<path d="M9.474,12.413L6.904,12.413L6.904,14.774L9.181,14.774C9.22,14.774 9.277,14.775 9.345,14.774C9.711,14.765 10.406,14.66 10.406,13.626C10.406,12.401 9.474,12.413 9.474,12.413Z" fill="#000000"/>
<path d="M12,0C5.383,0 0,5.383 0,12C0,18.617 5.383,24 12,24C18.617,24 24,18.617 24,12C24,5.383 18.617,0 12,0ZM14.123,8.031L17.767,8.031L17.767,9.119L14.123,9.119L14.123,8.031ZM12.281,13.737C12.281,16.432 9.474,16.344 9.474,16.344L6.904,16.344L6.828,16.344L4.879,16.344L4.879,7.511L6.828,7.511L6.904,7.511L9.474,7.511C10.872,7.511 11.974,8.282 11.974,9.863C11.974,11.443 10.627,11.544 10.627,11.544C12.403,11.544 12.281,13.737 12.281,13.737ZM19.098,13.592L14.521,13.592C14.521,15.233 16.075,15.129 16.075,15.129C17.543,15.129 17.492,14.179 17.492,14.179L19.047,14.179C19.047,16.701 16.024,16.528 16.024,16.528C12.397,16.528 12.63,13.152 12.63,13.152C12.63,13.152 12.627,9.758 16.024,9.758C19.599,9.758 19.098,13.592 19.098,13.592Z" fill="#000000"/>
</svg>
