<svg width="24" height="24" viewBox="0 0 24 24" fill="none" xmlns="http://www.w3.org/2000/svg" xmlns:xlink="http://www.w3.org/1999/xlink">
<path d="M15.142,13.51C15.142,16.192 16.843,16.435 17.394,16.435C17.945,16.435 18.188,16.332 18.188,16.332L18.188,10.745C18.188,10.745 18.03,10.614 17.562,10.614C17.095,10.614 15.142,10.829 15.142,13.51Z" fill="#000000"/>
<path d="M0,0L0,24L24,24L24,0L0,0ZM10.395,18L8.128,13.308L5.886,18L3.798,18L6.896,11.881L3.905,5.906L6.018,5.906L8.249,10.511L10.451,5.906L12.502,5.906L9.463,11.81L12.655,18L10.395,18ZM20.203,17.394C20.203,17.394 19.241,18.1 17.2,18.1C14.428,18.1 13.126,16.157 13.126,13.588C13.126,10.266 15.565,8.953 17.581,8.953C17.818,8.953 18.188,8.953 18.188,8.953L18.188,5.906L20.203,5.906L20.203,17.394L20.203,17.394Z" fill="#000000"/>
</svg>
