<svg width="24" height="24" viewBox="0 0 24 24" fill="none" xmlns="http://www.w3.org/2000/svg" xmlns:xlink="http://www.w3.org/1999/xlink">
<path d="M8.286,6.82C7.68,6.82 7.219,6.838 7.125,6.856L7.125,11.128C7.219,11.146 7.479,11.164 8.131,11.164C9.359,11.164 10.538,10.814 10.538,9.008C10.538,7.563 9.747,6.82 8.286,6.82Z" fill="#000000"/>
<path d="M0,0L0,24L24,24L24,0L0,0ZM8.08,12.891C7.645,12.891 7.219,12.891 7.125,12.891L7.125,16.984C7.125,17.092 7.085,17.109 7.007,17.109L5.36,17.109C5.283,17.109 5.25,17.093 5.25,17.002L5.25,5.214C5.25,5.124 5.266,5.09 5.344,5.09C5.934,5.072 7.096,5.056 8.276,5.056C11.322,5.056 12.486,6.829 12.502,8.924C12.501,11.796 10.363,12.891 8.08,12.891ZM16.173,17.362C15.364,17.362 14.356,17.284 13.715,16.815C13.653,16.779 13.641,16.725 13.641,16.634L13.641,14.972C13.641,14.882 13.684,14.846 13.73,14.882C14.524,15.478 15.395,15.647 16.189,15.647C16.891,15.647 17.133,15.179 17.133,14.782C17.133,14.312 16.962,14.041 15.862,13.517C14.29,12.759 13.633,12.107 13.633,10.788C13.633,9.324 14.727,8.116 16.529,8.116C17.46,8.116 18.106,8.141 18.534,8.43C18.61,8.502 18.609,8.556 18.609,8.665L18.609,10.146C18.609,10.254 18.564,10.309 18.488,10.254C17.938,9.893 17.174,9.778 16.381,9.778C15.632,9.778 15.435,10.246 15.435,10.589C15.435,11.023 15.635,11.257 16.78,11.8C18.352,12.558 19.026,13.227 19.026,14.527C19.026,16.334 17.853,17.362 16.173,17.362Z" fill="#000000"/>
</svg>
