<svg width="24" height="24" viewBox="0 0 24 24" fill="none" xmlns="http://www.w3.org/2000/svg" xmlns:xlink="http://www.w3.org/1999/xlink">
<path d="M0,0L0,24L24,24L24,0L0,0ZM14.378,17.109L12.637,17.109C12.56,17.109 12.528,17.053 12.497,16.981L11.503,13.781L7.945,13.781L6.997,16.945C6.982,17.053 6.935,17.109 6.842,17.109L5.257,17.109C5.148,17.109 5.117,17.053 5.148,16.927C5.987,14.163 7.401,9.556 8.395,6.431C8.442,6.25 8.489,6.077 8.52,5.445C8.52,5.372 8.566,5.344 8.613,5.344L10.757,5.344C10.835,5.344 10.85,5.353 10.882,5.425C12.031,9.128 13.29,13.21 14.471,16.949C14.502,17.057 14.471,17.109 14.378,17.109ZM18,16.958C18,17.048 17.969,17.109 17.878,17.109L16.29,17.109C16.198,17.109 16.172,17.066 16.172,16.94L16.172,8.467C16.172,8.359 16.183,8.297 16.259,8.297L17.878,8.297C17.969,8.297 18,8.341 18,8.467L18,16.958ZM17.069,7.13C16.458,7.13 16.046,6.697 16.046,6.01C16.046,5.342 16.489,4.89 17.084,4.89C17.71,4.89 18.091,5.342 18.091,6.01C18.091,6.697 17.679,7.13 17.069,7.13Z" fill="#000000"/>
<path d="M9.685,7.125C9.452,8.297 8.815,10.359 8.349,12.047L11.083,12.047C10.773,10.828 10.011,8.391 9.701,7.125L9.685,7.125Z" fill="#000000"/>
</svg>
