<svg width="24" height="24" viewBox="0 0 24 24" fill="none" xmlns="http://www.w3.org/2000/svg" xmlns:xlink="http://www.w3.org/1999/xlink">
<path d="M23.999,2.135C24,2.072 23.988,2.01 23.963,1.952C23.938,1.894 23.901,1.842 23.855,1.799L22.191,0.138C22.099,0.05 21.977,0 21.849,0C21.722,0 21.599,0.05 21.508,0.138L20.055,1.598C19.79,1.417 19.471,1.331 19.15,1.352C18.83,1.373 18.525,1.5 18.285,1.713L17.929,1.358C17.751,1.179 17.539,1.037 17.305,0.941C17.071,0.844 16.821,0.794 16.568,0.794C16.315,0.794 16.065,0.844 15.831,0.941C15.598,1.037 15.386,1.179 15.207,1.358L9.724,6.831L10.407,7.513L15.89,2.039C15.979,1.949 16.086,1.878 16.203,1.829C16.32,1.78 16.446,1.755 16.573,1.755C16.7,1.755 16.826,1.78 16.943,1.829C17.06,1.878 17.167,1.949 17.256,2.039L17.602,2.385L2.124,17.749L6.145,21.772L22.258,5.755C22.49,5.519 22.632,5.209 22.659,4.879C22.685,4.549 22.594,4.22 22.402,3.95L23.855,2.5C23.904,2.453 23.942,2.397 23.967,2.334C23.992,2.271 24.003,2.203 23.999,2.135ZM21.758,3.22L20.796,2.26L21.883,1.185L22.845,2.145L21.758,3.22ZM1.461,18.498C1.459,18.523 1.459,18.549 1.461,18.575L0.018,23.376C-0.005,23.458 -0.006,23.545 0.016,23.628C0.038,23.711 0.082,23.786 0.143,23.846C0.216,23.932 0.319,23.987 0.431,24L0.576,24L5.385,22.55C5.423,22.535 5.458,22.515 5.491,22.492L1.461,18.498Z" fill="#0E1D25"/>
</svg>
