<svg width="22" height="28" viewBox="0 0 22 28" fill="none" xmlns="http://www.w3.org/2000/svg" xmlns:xlink="http://www.w3.org/1999/xlink">
<path d="M21,28C20.735,28 20.481,27.895 20.293,27.707L18.823,26.237C17.894,26.819 16.783,27.038 15.702,26.853C14.622,26.668 13.647,26.092 12.964,25.234C12.282,24.377 11.938,23.298 12,22.203C12.062,21.109 12.525,20.075 13.3,19.3C14.075,18.525 15.109,18.062 16.203,18C17.298,17.938 18.377,18.282 19.234,18.964C20.092,19.647 20.668,20.622 20.853,21.702C21.038,22.783 20.819,23.894 20.237,24.823L21.707,26.293C21.847,26.433 21.942,26.611 21.981,26.805C22.019,26.999 21.999,27.2 21.924,27.383C21.848,27.565 21.72,27.722 21.556,27.831C21.391,27.941 21.198,28 21,28ZM16.458,20C15.972,20 15.496,20.144 15.092,20.415C14.687,20.685 14.372,21.069 14.186,21.518C14,21.968 13.951,22.462 14.046,22.939C14.141,23.416 14.376,23.854 14.72,24.198C15.064,24.542 15.502,24.776 15.979,24.871C16.456,24.966 16.95,24.917 17.4,24.731C17.849,24.544 18.233,24.229 18.503,23.824C18.773,23.42 18.917,22.944 18.917,22.458C18.916,21.806 18.657,21.181 18.196,20.721C17.735,20.26 17.11,20.001 16.458,20Z" fill="#000000"/>
<path d="M18,8C16.939,8 15.922,7.579 15.172,6.828C14.421,6.078 14,5.061 14,4L14,0L5,0C3.674,0 2.402,0.527 1.464,1.464C0.527,2.402 0,3.674 0,5L0,23C0,24.326 0.527,25.598 1.464,26.536C2.402,27.473 3.674,28 5,28L13.159,28C12.314,27.498 11.594,26.81 11.055,25.988C10.517,25.165 10.173,24.231 10.05,23.255C9.928,22.28 10.03,21.29 10.349,20.36C10.667,19.43 11.194,18.585 11.889,17.89C12.585,17.194 13.429,16.667 14.359,16.348C15.289,16.03 16.28,15.927 17.255,16.05C18.231,16.172 19.165,16.516 19.987,17.054C20.81,17.593 21.498,18.313 22,19.158L22,8L18,8ZM5,6L11,6C11.265,6 11.52,6.105 11.707,6.293C11.895,6.48 12,6.735 12,7C12,7.265 11.895,7.52 11.707,7.707C11.52,7.895 11.265,8 11,8L5,8C4.735,8 4.48,7.895 4.293,7.707C4.105,7.52 4,7.265 4,7C4,6.735 4.105,6.48 4.293,6.293C4.48,6.105 4.735,6 5,6L5,6ZM8,16L5,16C4.735,16 4.48,15.895 4.293,15.707C4.105,15.52 4,15.265 4,15C4,14.735 4.105,14.48 4.293,14.293C4.48,14.105 4.735,14 5,14L8,14C8.265,14 8.52,14.105 8.707,14.293C8.895,14.48 9,14.735 9,15C9,15.265 8.895,15.52 8.707,15.707C8.52,15.895 8.265,16 8,16ZM15,12L5,12C4.735,12 4.48,11.895 4.293,11.707C4.105,11.52 4,11.265 4,11C4,10.735 4.105,10.48 4.293,10.293C4.48,10.105 4.735,10 5,10L15,10C15.265,10 15.52,10.105 15.707,10.293C15.895,10.48 16,10.735 16,11C16,11.265 15.895,11.52 15.707,11.707C15.52,11.895 15.265,12 15,12Z" fill="#000000"/>
<path d="M21.869,6C21.733,5.513 21.476,5.068 21.121,4.707L17.293,0.879C16.932,0.524 16.487,0.267 16,0.131L16,4C16,4.53 16.211,5.039 16.586,5.414C16.961,5.789 17.47,6 18,6L21.869,6Z" fill="#000000"/>
</svg>
