<svg width="28" height="28" viewBox="0 0 28 28" fill="none" xmlns="http://www.w3.org/2000/svg" xmlns:xlink="http://www.w3.org/1999/xlink">
<path d="M21.543,2.771L20.129,1.357L20.129,1.357L21.543,2.771ZM17.514,6.8L16.93,8.713C17.637,8.929 18.406,8.737 18.928,8.214L17.514,6.8ZM6.286,3.371L6.87,1.459C6.163,1.243 5.394,1.434 4.872,1.957L6.286,3.371ZM3.8,5.857L2.386,4.443C1.931,4.898 1.723,5.543 1.826,6.178C1.929,6.812 2.331,7.358 2.906,7.646L3.8,5.857ZM13.571,10.743L14.986,12.157C15.44,11.702 15.649,11.057 15.546,10.422C15.443,9.788 15.041,9.242 14.466,8.954L13.571,10.743ZM8.943,15.371L8.821,17.368C9.393,17.403 9.952,17.191 10.357,16.786L8.943,15.371ZM4.743,15.114L4.865,13.118C4.282,13.082 3.713,13.303 3.307,13.722L4.743,15.114ZM2,17.943L0.564,16.551C0.049,17.082 -0.131,17.856 0.098,18.56C0.326,19.265 0.926,19.785 1.655,19.913L2,17.943ZM8.857,19.143L10.827,18.798C10.682,17.968 10.032,17.318 9.202,17.173L8.857,19.143ZM10.057,26L8.087,26.345C8.216,27.08 8.743,27.682 9.454,27.907C10.166,28.132 10.944,27.942 11.471,27.414L10.057,26ZM12.886,23.171L14.3,24.586C14.705,24.181 14.917,23.621 14.882,23.049L12.886,23.171ZM12.629,18.971L11.214,17.557C10.809,17.962 10.597,18.522 10.632,19.094L12.629,18.971ZM17.257,14.343L19.046,13.448C18.758,12.873 18.212,12.472 17.577,12.369C16.943,12.266 16.298,12.474 15.843,12.929L17.257,14.343ZM22.143,24.114L20.354,25.009C20.642,25.584 21.188,25.985 21.823,26.088C22.457,26.191 23.102,25.983 23.557,25.528L22.143,24.114ZM24.629,21.629L26.043,23.043C26.566,22.52 26.757,21.752 26.541,21.044L24.629,21.629ZM21.2,10.4L19.786,8.986C19.263,9.509 19.071,10.277 19.287,10.984L21.2,10.4ZM25.229,6.371L23.877,4.897C23.856,4.917 23.835,4.937 23.814,4.957L25.229,6.371ZM26.643,1.357C24.833,-0.452 21.938,-0.452 20.129,1.357L22.957,4.186C23.205,3.938 23.567,3.938 23.814,4.186L26.643,1.357ZM20.129,1.357L16.1,5.386L18.928,8.214L22.957,4.186L20.129,1.357ZM18.098,4.887L6.87,1.459L5.702,5.284L16.93,8.713L18.098,4.887ZM4.872,1.957L2.386,4.443L5.214,7.271L7.7,4.786L4.872,1.957ZM2.906,7.646L12.677,12.532L14.466,8.954L4.694,4.068L2.906,7.646ZM12.157,9.329L7.529,13.957L10.357,16.786L14.986,12.157L12.157,9.329ZM9.065,13.375L4.865,13.118L4.621,17.111L8.821,17.368L9.065,13.375ZM3.307,13.722L0.564,16.551L3.436,19.335L6.179,16.507L3.307,13.722ZM1.655,19.913L8.512,21.113L9.202,17.173L2.345,15.973L1.655,19.913ZM6.887,19.488L8.087,26.345L12.027,25.655L10.827,18.798L6.887,19.488ZM11.471,27.414L14.3,24.586L11.472,21.757L8.643,24.586L11.471,27.414ZM14.882,23.049L14.625,18.849L10.632,19.094L10.889,23.294L14.882,23.049ZM14.043,20.386L18.671,15.757L15.843,12.929L11.214,17.557L14.043,20.386ZM15.468,15.237L20.354,25.009L23.932,23.22L19.046,13.448L15.468,15.237ZM23.557,25.528L26.043,23.043L23.214,20.214L20.729,22.7L23.557,25.528ZM26.541,21.044L23.113,9.816L19.287,10.984L22.716,22.213L26.541,21.044ZM22.614,11.814L26.643,7.786L23.814,4.957L19.786,8.986L22.614,11.814ZM26.58,7.846C28.509,6.077 28.417,3.131 26.643,1.357L23.814,4.186C24.098,4.469 24.005,4.78 23.877,4.897L26.58,7.846Z" fill="#000000"/>
</svg>
