<svg width="22" height="16" viewBox="0 0 22 16" fill="none" xmlns="http://www.w3.org/2000/svg" xmlns:xlink="http://www.w3.org/1999/xlink">
<path d="M21.997,2.337L21.998,2.336L21.997,2.337L21.997,1.812C21.997,0.815 21.186,0 20.195,0L20.194,0L20.193,0.001L20.195,0L1.802,0L1.809,0.006L1.802,0C0.811,0 0,0.816 0,1.812L0,14.188C0,15.185 0.811,16 1.802,16L2.444,16L19.498,16L19.498,16C21.389,15.977 21.957,15.507 22,14.19L21.997,2.337ZM18.852,0.443L10.969,6.28L3.138,0.443L18.852,0.443ZM2.89,4.979L10.191,10.034L10.199,10.039L2.885,15.151L2.89,4.979ZM3.078,15.557L10.585,10.31L10.717,10.402C10.792,10.455 10.88,10.481 10.969,10.481C11.056,10.481 11.356,10.308 11.356,10.308L18.864,15.557L3.078,15.557ZM19.052,15.148L11.744,10.039L15.82,7.217L19.052,4.979L19.052,15.148L19.052,15.148Z" fill="#000000"/>
</svg>
