<svg width="22" height="34" viewBox="0 0 22 34" fill="none" xmlns="http://www.w3.org/2000/svg" xmlns:xlink="http://www.w3.org/1999/xlink">
<path d="M11,17C11,15.497 11.579,14.056 12.611,12.993C13.642,11.93 15.041,11.333 16.5,11.333C17.959,11.333 19.358,11.93 20.389,12.993C21.421,14.056 22,15.497 22,17C22,18.503 21.421,19.944 20.389,21.007C19.358,22.07 17.959,22.667 16.5,22.667C15.041,22.667 13.642,22.07 12.611,21.007C11.579,19.944 11,18.503 11,17ZM0,28.333C0,26.83 0.579,25.389 1.611,24.326C2.642,23.264 4.041,22.667 5.5,22.667L11,22.667L11,28.333C11,29.836 10.421,31.278 9.389,32.34C8.358,33.403 6.959,34 5.5,34C4.041,34 2.642,33.403 1.611,32.34C0.579,31.278 0,29.836 0,28.333ZM11,0L11,11.333L16.5,11.333C17.959,11.333 19.358,10.736 20.389,9.674C21.421,8.611 22,7.17 22,5.667C22,4.164 21.421,2.722 20.389,1.66C19.358,0.597 17.959,0 16.5,0L11,0ZM0,5.667C0,7.17 0.579,8.611 1.611,9.674C2.642,10.736 4.041,11.333 5.5,11.333L11,11.333L11,0L5.5,0C4.041,0 2.642,0.597 1.611,1.66C0.579,2.722 0,4.164 0,5.667L0,5.667ZM0,17C0,18.503 0.579,19.944 1.611,21.007C2.642,22.07 4.041,22.667 5.5,22.667L11,22.667L11,11.333L5.5,11.333C4.041,11.333 2.642,11.93 1.611,12.993C0.579,14.056 0,15.497 0,17L0,17Z" fill="#000000"/>
</svg>
