<svg width="22" height="22" viewBox="0 0 22 22" fill="none" xmlns="http://www.w3.org/2000/svg" xmlns:xlink="http://www.w3.org/1999/xlink">
<path d="M4.431,9.527C6.191,12.986 9.02,15.816 12.485,17.576L15.174,14.881C15.51,14.544 15.993,14.447 16.414,14.581C17.783,15.033 19.256,15.278 20.778,15.278C21.456,15.278 22,15.822 22,16.5L22,20.778C22,21.456 21.456,22 20.778,22C9.301,22 0,12.699 0,1.222C0,0.544 0.55,0 1.222,0L5.5,0C6.178,0 6.722,0.544 6.722,1.222C6.722,2.744 6.967,4.217 7.419,5.586C7.553,6.007 7.456,6.49 7.119,6.826L4.431,9.527L4.431,9.527Z" fill="#000000"/>
</svg>
