<svg width="24" height="24" viewBox="0 0 24 24" fill="none" xmlns="http://www.w3.org/2000/svg" xmlns:xlink="http://www.w3.org/1999/xlink">
<path d="M12.002,0C18.622,0 23.995,5.363 24,11.988C24.005,18.647 18.642,24.005 11.983,24C5.353,23.995 -0.005,18.632 0,12.007C0,5.368 5.363,0.005 12.002,0ZM5.686,20.055C5.735,20.108 5.749,20.128 5.769,20.143C5.798,20.167 5.833,20.191 5.867,20.216C7.627,21.516 9.602,22.201 11.792,22.25C13.171,22.284 14.496,22.03 15.777,21.536C15.943,21.472 16.007,21.389 15.963,21.208C15.894,20.93 15.855,20.651 15.796,20.372C15.41,18.524 14.897,16.711 14.276,14.926C14.129,14.506 13.973,14.09 13.811,13.645C10.37,14.892 7.553,16.857 5.686,20.055ZM1.794,11.626C1.413,13.567 3.031,17.972 4.381,18.793C6.527,15.547 9.314,13.127 13.122,11.939C12.853,11.386 12.599,10.854 12.33,10.33C12.306,10.277 12.149,10.257 12.071,10.277C11.558,10.399 11.049,10.55 10.536,10.673C8.297,11.206 6.028,11.528 3.73,11.621C3.085,11.65 2.44,11.626 1.794,11.626ZM2.014,9.856C3.168,10.135 10.521,9.147 11.406,8.59C10.257,6.571 9.001,4.62 7.637,2.743C4.522,4.117 2.386,7.314 2.014,9.856ZM18.754,4.297C17.239,2.982 15.493,2.161 13.503,1.863C12.198,1.672 10.907,1.726 9.587,2.039C11.015,3.975 12.276,5.955 13.41,8.003C15.434,7.329 17.825,5.735 18.754,4.297ZM22.25,11.87C22.201,9.48 21.428,7.373 19.927,5.495C19.17,6.444 18.29,7.206 17.322,7.876C16.349,8.546 15.307,9.084 14.227,9.543C14.51,10.189 14.779,10.805 15.063,11.416C15.092,11.479 15.21,11.548 15.273,11.543C16.975,11.352 18.671,11.401 20.367,11.602C20.979,11.68 21.585,11.778 22.25,11.87ZM17.723,20.465C19.58,19.654 22.02,15.84 22.103,13.621C20.025,13.01 17.913,12.882 15.733,13.176C16.588,15.576 17.273,17.991 17.723,20.465Z" fill="#000000"/>
</svg>
